<?xml version="1.0" encoding="UTF-8" standalone="no"?><!DOCTYPE svg PUBLIC "-//W3C//DTD SVG 1.1//EN" "http://www.w3.org/Graphics/SVG/1.1/DTD/svg11.dtd"><svg width="100%" height="100%" viewBox="0 0 596 842" version="1.1" xmlns="http://www.w3.org/2000/svg" xmlns:xlink="http://www.w3.org/1999/xlink" xml:space="preserve" xmlns:serif="http://www.serif.com/" style="fill-rule:evenodd;clip-rule:evenodd;stroke-linejoin:round;stroke-miterlimit:1.41421;"><path d="M297.923,332.851c2.677,0 2.736,-56.974 2.294,-57.773c-3.262,-5.891 -2.694,-4.473 -6.639,-12.227c-13.469,-26.474 -23.499,-42.883 -40.889,-49.057c-23.814,-8.456 -41.091,-1.367 -43.275,20.945c-0.724,7.4 7.808,25.26 20.604,36.551c18.695,16.496 35.953,31.856 49,43.354c13.828,12.185 16.229,18.207 18.905,18.207Z" style="fill:#666;fill-rule:nonzero;"/><path d="M302.592,332.851c-2.676,0 -2.736,-56.974 -2.294,-57.773c3.262,-5.891 2.694,-4.473 6.639,-12.227c13.469,-26.474 23.5,-42.883 40.89,-49.057c23.814,-8.456 41.091,-1.367 43.274,20.945c0.725,7.4 -7.807,25.26 -20.604,36.551c-18.695,16.496 -35.952,31.856 -49,43.354c-13.828,12.185 -16.228,18.207 -18.905,18.207Z" style="fill:#666;fill-rule:nonzero;"/><path d="M172.906,324.748c0.614,2.677 15.414,28.344 21.932,36.348c4.371,5.368 10.31,10.782 17.175,11.675c8.3,1.079 22.194,-2.856 32.622,-5.2c10.156,-2.282 20.662,-5.786 29.945,-8.859c8.695,-2.878 19.899,-7.375 25.755,-9.579c0.414,-0.156 -0.028,-56.537 -0.089,-61.4c-0.077,-6.035 -24.377,-44.377 -37.965,-51.884c-9.167,-5.064 -26.052,-7.908 -33.598,-5.988c-6.799,1.729 -13.559,10.749 -11.68,17.508c2.08,7.479 16.373,23.301 24.156,27.365c1.769,0.923 5.64,2.132 7.423,2.102c0.164,-0.003 4.015,0.303 5.385,-1.529c0.849,-1.134 0.651,-2.558 -0.019,-4.902c-0.47,-1.643 -1.218,-3.21 -1.6,-3.826c-0.107,-0.173 -0.495,-0.18 -0.42,-0.043c1.133,2.058 3.376,6.8 1.325,8.643c-2.48,2.23 -9.812,1.078 -14.445,-3.051c-3.103,-2.766 -6.315,-8.733 -7.282,-10.717c-0.453,-0.931 -2.606,-6.641 7.162,-12.08c3.047,-1.696 3.953,-0.134 10.041,-1.123c2.261,-0.367 2.654,5.413 2.936,8.943c0.115,1.428 0.246,8.924 0.246,8.924c0,0 0.327,0.067 0.321,-0.115c-0.056,-1.823 -0.238,-6.992 -0.344,-8.802c-0.162,-2.742 -0.558,-4.941 -0.461,-4.895c0.607,0.284 9.726,4.442 10.167,6.373c1.147,5.022 6.719,10.168 8.021,11.083c2.061,1.448 3.533,1.212 5.821,2.657c2.568,1.622 6.212,3.936 5.519,5.473c-0.953,2.113 -3.186,3.154 -5.099,3.997c-3.072,1.354 -13.037,0.719 -16.2,-2.271c-3.483,-3.293 9.333,3.47 6.003,3.717c-8.353,0.622 -14.655,-3.05 -13.669,-1.588c8.486,12.591 30.36,29.496 35.759,34.932c3.03,3.05 7.152,19.124 6.111,24.65c-0.926,4.915 -7.75,6.722 -12.358,8.508c-6.015,2.331 -15.214,5.145 -22.901,7.459c-7.912,2.383 -14.917,4.465 -24.571,6.834c-7.227,1.773 -15.459,4.725 -22.26,1.703c-7.146,-3.175 -14.448,-13.547 -20.617,-20.756c-6.088,-7.113 -18.861,-22.963 -18.247,-20.286Z" style="fill:#48d312;"/><path d="M427.13,324.748c-0.614,2.677 -15.414,28.344 -21.931,36.348c-4.372,5.368 -10.311,10.782 -17.176,11.675c-8.299,1.079 -22.194,-2.856 -32.622,-5.2c-10.156,-2.282 -20.661,-5.786 -29.944,-8.859c-8.696,-2.878 -19.9,-7.375 -25.755,-9.579c-0.414,-0.156 0.391,-56.345 0.146,-61.203c-0.3,-5.949 21.944,-44.837 37.907,-52.081c9.538,-4.327 26.052,-7.908 33.599,-5.988c6.798,1.729 12.593,11.464 11.679,17.508c-0.914,6.044 -10.889,12.611 -17.164,18.754c-0.876,0.859 -7.864,-7.376 -10.36,-9.108c-1.243,-0.863 -4.031,-1.88 -4.204,-3.056c-0.285,-1.937 -7.866,-6.196 -8.146,-4.282c-0.348,2.371 -1.542,4.882 -2.078,4.609c-2.965,-1.511 -6.968,-4.517 -9.697,-2.861c-2.164,1.313 4.795,5.041 3.176,7.824c-1.488,2.558 -2.54,3.203 -2.618,6.436c-0.072,2.978 1.285,5.567 0.936,7.622c-0.616,3.636 -3.159,4.393 -1.534,6.044c0.565,0.574 3.384,2.822 5.134,2.507c1.448,-0.26 4.729,-4.7 5.243,-5.097c0.802,-0.621 -4.771,5.49 -3.551,5.356c4.944,-0.545 11.476,-3.193 10.151,-1.226c-8.487,12.591 -30.635,30.309 -36.034,35.745c-3.029,3.05 -7.152,19.124 -6.11,24.65c0.926,4.915 7.749,6.722 12.358,8.508c6.015,2.331 15.213,5.145 22.901,7.459c7.912,2.383 14.916,4.465 24.571,6.834c7.227,1.773 15.459,4.725 22.259,1.703c7.146,-3.175 14.448,-13.547 20.618,-20.756c6.087,-7.113 18.86,-22.963 18.246,-20.286Z" style="fill:#48d312;"/><path d="M215.532,288.723l0,-6.222c0,-9.739 -1.263,-19.478 -3.788,-29.127c-2.074,-6.492 -4.599,-11.903 -7.574,-16.141c-4.148,-5.681 -8.838,-8.567 -14.068,-8.567c-5.23,0 -10.731,3.878 -16.502,11.453c-3.607,4.779 -6.582,10.099 -9.107,15.961c-4.239,9.468 -7.214,20.199 -8.928,32.282c1.533,0.632 3.337,0.902 5.411,0.902l4.509,-16.502c13.796,1.804 32.094,2.615 35.25,2.615c0.27,-0.631 0.451,-1.533 0.451,-2.615c0,-1.443 -0.091,-2.254 -0.091,-2.525l-33.717,-3.426c3.337,-9.198 7.214,-16.953 11.633,-23.446c4.328,-5.681 8.025,-8.567 11.182,-8.567c3.697,0 7.214,2.976 10.55,8.928c2.164,4.508 3.878,9.198 5.14,13.977c2.254,9.288 3.427,19.658 3.517,31.02c0.541,0.18 1.803,0.271 3.787,0.271c0.361,0 1.172,-0.091 2.345,-0.271Z" style="fill:#595959;fill-rule:nonzero;"/><g><path d="M387.554,282.64c0,-0.763 -0.077,-1.525 -0.153,-2.288c-6.026,-0.458 -12.509,-0.763 -19.527,-0.763c-6.559,0 -13.576,0.229 -21.128,0.61c-0.229,0.763 -0.305,1.602 -0.305,2.518c0,0.152 0.076,0.915 0.305,2.288c1.983,0.229 5.721,0.305 11.213,0.305c14.645,0 24.484,-0.076 29.442,-0.382c0.076,-0.457 0.153,-1.22 0.153,-2.288Zm-4.577,44.011c0,-1.22 -0.153,-1.983 -0.305,-2.288c-5.797,-0.077 -11.67,-0.153 -17.62,-0.229c-4.729,0 -9,-0.153 -12.814,-0.61c-0.458,-6.712 -0.686,-12.128 -0.686,-16.399c7.093,0.228 14.187,0.305 21.28,0.305c0.839,0 2.212,-0.077 4.043,-0.229c0.305,-0.915 0.458,-1.678 0.458,-2.441c0,-1.144 -0.153,-1.907 -0.305,-2.212c-1.526,-0.381 -9.993,-0.686 -25.324,-0.992l0.153,-11.975c-0.382,-0.305 -1.297,-0.457 -2.822,-0.457c-1.221,0 -2.06,0.076 -2.365,0.228c-0.458,5.263 -0.61,12.357 -0.61,21.281c0,5.873 0.457,11.747 1.296,17.696c2.212,0.763 8.238,1.297 18.154,1.449c8.314,0 14.035,-0.305 17.238,-0.915c0.153,-0.534 0.229,-1.297 0.229,-2.212Z" style="fill:#666;fill-rule:nonzero;"/><path d="M447.329,282.411c0,-1.22 -0.076,-1.983 -0.228,-2.364c-1.221,-0.382 -8.162,-0.61 -20.823,-0.61c-15.942,0 -24.866,0.305 -26.697,0.762c-0.152,0.916 -0.152,1.602 -0.152,2.212c0,0.916 0.076,1.678 0.381,2.289c1.449,0.457 5.187,0.61 11.212,0.61c22.502,0 34.553,-0.305 36.079,-0.992c0.152,-0.381 0.228,-0.991 0.228,-1.907Zm-19.602,46.91c-0.153,-5.111 -0.534,-12.509 -1.144,-22.273c-0.839,-10.678 -1.45,-16.78 -1.755,-18.458c-0.534,-0.153 -1.449,-0.229 -2.669,-0.229c-1.221,0 -2.06,0.229 -2.67,0.61c0.458,16.781 1.449,30.434 2.898,40.884c0.458,0.152 1.373,0.228 2.746,0.228c1.068,0 1.907,-0.228 2.594,-0.762Z" style="fill:#666;fill-rule:nonzero;"/></g></svg>